<svg width="167" height="56" viewBox="0 0 167 56" fill="none" xmlns="http://www.w3.org/2000/svg">
    <rect y="-0.00012207" width="166.94" height="56" rx="8" fill="url(#paint0_linear_4_1042)"/>
    <rect x="1.05" y="1.04988" width="164.84" height="53.9" rx="6.95" stroke="white" stroke-opacity="0.15" stroke-width="2.1"/>
    <g filter="url(#filter0_d_4_1042)">
        <path d="M46 25.6754C43.0848 24.5347 38.7871 28.9074 36.6833 35.6247C35.5546 39.2912 35.1957 43.1726 35.6314 46.9999L34.279 46.3978C31.6943 37.9378 33.1369 28.6856 37.615 21.9999L46 25.6754Z" fill="white"/>
        <path d="M48.5263 39.4128L38.1527 35.1349C40.0587 29.3582 43.5895 25.8921 45.8704 25.8921C46.1043 25.9006 46.3358 25.9426 46.5578 26.017L46.7453 26.1107C47.5576 26.4854 50.026 28.6088 48.5263 39.4128ZM44.808 13.7766C41.5732 15.5305 38.8082 18.0367 36.7467 21.0834C32.1848 27.7032 30.6226 36.665 32.9972 45.0334C33.28 46.0424 33.6244 47.033 34.0283 47.9999L20.1241 42.2544C14.8748 29.3894 19.6866 14.0576 30.9038 7.99988L44.808 13.7766Z" fill="white"/>
    </g>
    <g filter="url(#filter1_d_4_1042)">
        <path d="M65.2012 24.4999H63.3376L67.5251 12.8635H69.5535L73.741 24.4999H71.8773L68.5876 14.9771H68.4967L65.2012 24.4999ZM65.5137 19.9431H71.5592V21.4203H65.5137V19.9431ZM81.6572 15.7726L78.4924 24.4999H76.6742L73.5038 15.7726H75.3276L77.5379 22.4885H77.6288L79.8333 15.7726H81.6572ZM85.5435 24.6931C84.9905 24.6931 84.4905 24.5908 84.0435 24.3862C83.5966 24.1779 83.2424 23.8768 82.981 23.4828C82.7235 23.0889 82.5947 22.6059 82.5947 22.034C82.5947 21.5415 82.6894 21.1362 82.8788 20.8181C83.0682 20.4999 83.3238 20.248 83.6458 20.0624C83.9678 19.8768 84.3276 19.7366 84.7254 19.6419C85.1231 19.5472 85.5284 19.4753 85.9413 19.426C86.464 19.3654 86.8882 19.3162 87.214 19.2783C87.5397 19.2366 87.7765 19.1703 87.9242 19.0794C88.0719 18.9885 88.1458 18.8408 88.1458 18.6362V18.5965C88.1458 18.1003 88.0057 17.7158 87.7254 17.4431C87.4488 17.1703 87.036 17.034 86.4867 17.034C85.9147 17.034 85.464 17.1609 85.1344 17.4146C84.8087 17.6646 84.5833 17.9431 84.4583 18.2499L82.8617 17.8862C83.0511 17.3559 83.3276 16.9279 83.6913 16.6021C84.0587 16.2726 84.481 16.034 84.9583 15.8862C85.4356 15.7347 85.9375 15.659 86.464 15.659C86.8125 15.659 87.1818 15.7006 87.5719 15.784C87.9659 15.8635 88.3333 16.0112 88.6742 16.2271C89.0189 16.4431 89.3011 16.7518 89.5208 17.1533C89.7405 17.551 89.8504 18.0681 89.8504 18.7044V24.4999H88.1913V23.3067H88.1231C88.0132 23.5264 87.8485 23.7423 87.6288 23.9544C87.4091 24.1665 87.1269 24.3427 86.7822 24.4828C86.4375 24.623 86.0246 24.6931 85.5435 24.6931ZM85.9129 23.3294C86.3826 23.3294 86.7841 23.2366 87.1174 23.051C87.4545 22.8654 87.7102 22.623 87.8844 22.3237C88.0625 22.0207 88.1515 21.6968 88.1515 21.3521V20.2271C88.0909 20.2878 87.9735 20.3446 87.7992 20.3976C87.6288 20.4468 87.4337 20.4904 87.214 20.5283C86.9943 20.5624 86.7803 20.5946 86.5719 20.6249C86.3636 20.6514 86.1894 20.6741 86.0492 20.6931C85.7197 20.7347 85.4185 20.8048 85.1458 20.9033C84.8769 21.0018 84.661 21.1438 84.4981 21.3294C84.339 21.5112 84.2594 21.7537 84.2594 22.0567C84.2594 22.4771 84.4147 22.7953 84.7254 23.0112C85.036 23.2234 85.4318 23.3294 85.9129 23.3294ZM92.1131 24.4999V15.7726H93.812V24.4999H92.1131ZM92.9711 14.426C92.6756 14.426 92.4218 14.3275 92.2097 14.1306C92.0014 13.9298 91.8972 13.6912 91.8972 13.4146C91.8972 13.1343 92.0014 12.8957 92.2097 12.6987C92.4218 12.498 92.6756 12.3976 92.9711 12.3976C93.2665 12.3976 93.5184 12.498 93.7268 12.6987C93.9389 12.8957 94.045 13.1343 94.045 13.4146C94.045 13.6912 93.9389 13.9298 93.7268 14.1306C93.5184 14.3275 93.2665 14.426 92.9711 14.426ZM97.7964 12.8635V24.4999H96.0975V12.8635H97.7964ZM102.622 24.6931C102.069 24.6931 101.569 24.5908 101.122 24.3862C100.675 24.1779 100.321 23.8768 100.059 23.4828C99.8016 23.0889 99.6728 22.6059 99.6728 22.034C99.6728 21.5415 99.7675 21.1362 99.9569 20.8181C100.146 20.4999 100.402 20.248 100.724 20.0624C101.046 19.8768 101.406 19.7366 101.803 19.6419C102.201 19.5472 102.607 19.4753 103.019 19.426C103.542 19.3654 103.966 19.3162 104.292 19.2783C104.618 19.2366 104.855 19.1703 105.002 19.0794C105.15 18.9885 105.224 18.8408 105.224 18.6362V18.5965C105.224 18.1003 105.084 17.7158 104.803 17.4431C104.527 17.1703 104.114 17.034 103.565 17.034C102.993 17.034 102.542 17.1609 102.213 17.4146C101.887 17.6646 101.661 17.9431 101.536 18.2499L99.9398 17.8862C100.129 17.3559 100.406 16.9279 100.769 16.6021C101.137 16.2726 101.559 16.034 102.036 15.8862C102.514 15.7347 103.016 15.659 103.542 15.659C103.891 15.659 104.26 15.7006 104.65 15.784C105.044 15.8635 105.411 16.0112 105.752 16.2271C106.097 16.4431 106.379 16.7518 106.599 17.1533C106.819 17.551 106.928 18.0681 106.928 18.7044V24.4999H105.269V23.3067H105.201C105.091 23.5264 104.927 23.7423 104.707 23.9544C104.487 24.1665 104.205 24.3427 103.86 24.4828C103.516 24.623 103.103 24.6931 102.622 24.6931ZM102.991 23.3294C103.461 23.3294 103.862 23.2366 104.196 23.051C104.533 22.8654 104.788 22.623 104.963 22.3237C105.141 22.0207 105.23 21.6968 105.23 21.3521V20.2271C105.169 20.2878 105.052 20.3446 104.877 20.3976C104.707 20.4468 104.512 20.4904 104.292 20.5283C104.072 20.5624 103.858 20.5946 103.65 20.6249C103.442 20.6514 103.267 20.6741 103.127 20.6931C102.798 20.7347 102.497 20.8048 102.224 20.9033C101.955 21.0018 101.739 21.1438 101.576 21.3294C101.417 21.5112 101.338 21.7537 101.338 22.0567C101.338 22.4771 101.493 22.7953 101.803 23.0112C102.114 23.2234 102.51 23.3294 102.991 23.3294ZM109.328 24.4999V12.8635H111.026V17.1874H111.129C111.227 17.0056 111.369 16.7953 111.555 16.5567C111.74 16.3181 111.998 16.1097 112.328 15.9317C112.657 15.7499 113.093 15.659 113.634 15.659C114.339 15.659 114.968 15.837 115.521 16.1931C116.074 16.5491 116.508 17.0624 116.822 17.7328C117.14 18.4033 117.299 19.2101 117.299 20.1533C117.299 21.0965 117.142 21.9052 116.828 22.5794C116.513 23.2499 116.081 23.7669 115.532 24.1306C114.983 24.4904 114.356 24.6703 113.651 24.6703C113.121 24.6703 112.687 24.5813 112.35 24.4033C112.017 24.2253 111.756 24.0169 111.566 23.7783C111.377 23.5396 111.231 23.3275 111.129 23.1419H110.987V24.4999H109.328ZM110.992 20.1362C110.992 20.7499 111.081 21.2878 111.259 21.7499C111.437 22.212 111.695 22.5737 112.032 22.8351C112.369 23.0927 112.782 23.2215 113.271 23.2215C113.778 23.2215 114.203 23.087 114.544 22.8181C114.884 22.5453 115.142 22.176 115.316 21.7101C115.494 21.2442 115.583 20.7196 115.583 20.1362C115.583 19.5605 115.496 19.0434 115.322 18.5851C115.151 18.1268 114.894 17.765 114.549 17.4999C114.208 17.2347 113.782 17.1021 113.271 17.1021C112.778 17.1021 112.362 17.229 112.021 17.4828C111.684 17.7366 111.428 18.0908 111.254 18.5453C111.08 18.9999 110.992 19.5302 110.992 20.1362ZM120.906 12.8635V24.4999H119.207V12.8635H120.906ZM126.953 24.676C126.093 24.676 125.352 24.4923 124.731 24.1249C124.114 23.7537 123.636 23.2328 123.299 22.5624C122.966 21.8881 122.799 21.0984 122.799 20.1931C122.799 19.2991 122.966 18.5112 123.299 17.8294C123.636 17.1476 124.106 16.6154 124.708 16.2328C125.314 15.8503 126.023 15.659 126.833 15.659C127.326 15.659 127.803 15.7404 128.265 15.9033C128.727 16.0662 129.142 16.3218 129.509 16.6703C129.877 17.0188 130.167 17.4715 130.379 18.0283C130.591 18.5813 130.697 19.2537 130.697 20.0453V20.6476H123.759V19.3749H129.032C129.032 18.9279 128.941 18.5321 128.759 18.1874C128.578 17.8389 128.322 17.5643 127.992 17.3635C127.667 17.1628 127.284 17.0624 126.845 17.0624C126.367 17.0624 125.951 17.1798 125.595 17.4146C125.242 17.6457 124.97 17.9487 124.776 18.3237C124.587 18.695 124.492 19.0984 124.492 19.534V20.5283C124.492 21.1116 124.595 21.6078 124.799 22.0169C125.008 22.426 125.297 22.7385 125.669 22.9544C126.04 23.1665 126.473 23.2726 126.97 23.2726C127.292 23.2726 127.585 23.2271 127.85 23.1362C128.115 23.0415 128.345 22.9014 128.538 22.7158C128.731 22.5302 128.879 22.301 128.981 22.0283L130.589 22.3181C130.46 22.7915 130.229 23.2063 129.896 23.5624C129.566 23.9146 129.151 24.1893 128.651 24.3862C128.155 24.5794 127.589 24.676 126.953 24.676ZM140.492 24.676C139.674 24.676 138.96 24.4885 138.35 24.1135C137.74 23.7385 137.267 23.2139 136.93 22.5396C136.593 21.8654 136.424 21.0775 136.424 20.176C136.424 19.2707 136.593 18.479 136.93 17.801C137.267 17.123 137.74 16.5965 138.35 16.2215C138.96 15.8465 139.674 15.659 140.492 15.659C141.311 15.659 142.025 15.8465 142.634 16.2215C143.244 16.5965 143.718 17.123 144.055 17.801C144.392 18.479 144.561 19.2707 144.561 20.176C144.561 21.0775 144.392 21.8654 144.055 22.5396C143.718 23.2139 143.244 23.7385 142.634 24.1135C142.025 24.4885 141.311 24.676 140.492 24.676ZM140.498 23.2499C141.028 23.2499 141.468 23.1097 141.816 22.8294C142.165 22.5491 142.422 22.176 142.589 21.7101C142.759 21.2442 142.845 20.7309 142.845 20.1703C142.845 19.6135 142.759 19.1021 142.589 18.6362C142.422 18.1665 142.165 17.7896 141.816 17.5056C141.468 17.2215 141.028 17.0794 140.498 17.0794C139.964 17.0794 139.521 17.2215 139.169 17.5056C138.82 17.7896 138.561 18.1665 138.39 18.6362C138.223 19.1021 138.14 19.6135 138.14 20.1703C138.14 20.7309 138.223 21.2442 138.39 21.7101C138.561 22.176 138.82 22.5491 139.169 22.8294C139.521 23.1097 139.964 23.2499 140.498 23.2499ZM148.156 19.3181V24.4999H146.457V15.7726H148.088V17.1931H148.196C148.396 16.7309 148.711 16.3597 149.139 16.0794C149.571 15.7991 150.114 15.659 150.769 15.659C151.364 15.659 151.885 15.784 152.332 16.034C152.779 16.2802 153.125 16.6476 153.372 17.1362C153.618 17.6249 153.741 18.229 153.741 18.9487V24.4999H152.042V19.1533C152.042 18.5207 151.877 18.0264 151.548 17.6703C151.218 17.3105 150.766 17.1306 150.19 17.1306C149.796 17.1306 149.446 17.2158 149.139 17.3862C148.836 17.5567 148.595 17.8067 148.417 18.1362C148.243 18.462 148.156 18.8559 148.156 19.3181Z" fill="#E8E8E8"/>
        <path d="M63.8756 43.4999V31.1362H66.8639V36.0986H71.7357V31.1362H74.7179V43.4999H71.7357V38.5315H66.8639V43.4999H63.8756ZM79.2064 43.6568C78.6147 43.6568 78.0895 43.5582 77.6307 43.361C77.1759 43.1598 76.8157 42.8579 76.5501 42.4555C76.2885 42.049 76.1577 41.5399 76.1577 40.9281C76.1577 40.413 76.2483 39.9783 76.4294 39.6242C76.6105 39.27 76.86 38.9822 77.1779 38.7609C77.4959 38.5395 77.8621 38.3725 78.2767 38.2598C78.6912 38.1431 79.1339 38.0646 79.6048 38.0244C80.132 37.9761 80.5566 37.9258 80.8786 37.8735C81.2006 37.8171 81.434 37.7386 81.5789 37.638C81.7278 37.5334 81.8022 37.3865 81.8022 37.1973V37.1671C81.8022 36.8572 81.6956 36.6178 81.4823 36.4487C81.269 36.2797 80.9812 36.1952 80.619 36.1952C80.2286 36.1952 79.9147 36.2797 79.6772 36.4487C79.4398 36.6178 79.2889 36.8512 79.2245 37.149L76.5018 37.0524C76.5823 36.489 76.7896 35.9859 77.1236 35.5432C77.4617 35.0965 77.9245 34.7463 78.5121 34.4928C79.1037 34.2352 79.8141 34.1064 80.6431 34.1064C81.2348 34.1064 81.7801 34.1768 82.2792 34.3177C82.7782 34.4545 83.2129 34.6558 83.5831 34.9214C83.9534 35.183 84.2391 35.505 84.4404 35.8873C84.6456 36.2696 84.7483 36.7063 84.7483 37.1973V43.4999H81.9713V42.208H81.8988C81.7338 42.5219 81.5225 42.7875 81.265 43.0048C81.0114 43.2222 80.7116 43.3852 80.3654 43.4938C80.0234 43.6025 79.637 43.6568 79.2064 43.6568ZM80.1179 41.725C80.4359 41.725 80.7216 41.6606 80.9752 41.5318C81.2328 41.403 81.438 41.226 81.5909 41.0006C81.7439 40.7712 81.8203 40.5056 81.8203 40.2037V39.3223C81.7358 39.3666 81.6332 39.4068 81.5125 39.4431C81.3958 39.4793 81.267 39.5135 81.1261 39.5457C80.9852 39.5779 80.8404 39.6061 80.6914 39.6302C80.5425 39.6543 80.3997 39.6765 80.2628 39.6966C79.9851 39.7409 79.7477 39.8093 79.5505 39.9019C79.3573 39.9944 79.2084 40.1152 79.1037 40.2641C79.0031 40.409 78.9528 40.582 78.9528 40.7833C78.9528 41.0891 79.0615 41.3226 79.2788 41.4835C79.5002 41.6445 79.7799 41.725 80.1179 41.725ZM89.5054 38.2115V43.4999H86.5533V34.2271H89.3605V35.9296H89.4631C89.6684 35.3621 90.0185 34.9174 90.5135 34.5954C91.0086 34.2694 91.5982 34.1064 92.2823 34.1064C92.9343 34.1064 93.4998 34.2533 93.9787 34.5471C94.4617 34.8369 94.836 35.2434 95.1016 35.7666C95.3712 36.2857 95.5041 36.8935 95.5 37.5897V43.4999H92.548V38.1693C92.552 37.6541 92.4212 37.2517 92.1556 36.9619C91.894 36.6721 91.5297 36.5272 91.0629 36.5272C90.753 36.5272 90.4793 36.5956 90.2419 36.7325C90.0084 36.8653 89.8273 37.0565 89.6985 37.306C89.5738 37.5555 89.5094 37.8574 89.5054 38.2115ZM101.65 47.1703C100.769 47.1703 100.014 47.0476 99.3863 46.8021C98.7585 46.5566 98.2654 46.2205 97.9073 45.7939C97.5491 45.3673 97.3337 44.8843 97.2613 44.345L100.056 44.1881C100.109 44.3772 100.205 44.5423 100.346 44.6831C100.491 44.824 100.678 44.9326 100.908 45.0091C101.141 45.0856 101.415 45.1238 101.729 45.1238C102.224 45.1238 102.632 45.0031 102.954 44.7616C103.28 44.5241 103.443 44.1076 103.443 43.5119V41.882H103.34C103.224 42.1677 103.047 42.4233 102.809 42.6487C102.572 42.874 102.276 43.0511 101.922 43.1799C101.572 43.3087 101.169 43.3731 100.714 43.3731C100.038 43.3731 99.4185 43.2161 98.8551 42.9022C98.2956 42.5843 97.8469 42.0933 97.5088 41.4292C97.1748 40.7611 97.0078 39.9019 97.0078 38.8514C97.0078 37.7688 97.1808 36.8774 97.5269 36.1771C97.873 35.4728 98.3258 34.9516 98.8852 34.6135C99.4487 34.2754 100.054 34.1064 100.702 34.1064C101.189 34.1064 101.606 34.1909 101.952 34.36C102.302 34.525 102.59 34.7383 102.815 34.9999C103.041 35.2615 103.212 35.5331 103.328 35.8149H103.413V34.2271H106.353V43.5361C106.353 44.3209 106.156 44.9829 105.761 45.5222C105.367 46.0615 104.816 46.47 104.107 46.7477C103.399 47.0295 102.58 47.1703 101.65 47.1703ZM101.741 41.224C102.099 41.224 102.405 41.1294 102.658 40.9402C102.912 40.7511 103.107 40.4794 103.244 40.1252C103.381 39.7711 103.449 39.3465 103.449 38.8514C103.449 38.3484 103.381 37.9157 103.244 37.5535C103.111 37.1873 102.916 36.9055 102.658 36.7083C102.405 36.5111 102.099 36.4125 101.741 36.4125C101.374 36.4125 101.065 36.5131 100.811 36.7144C100.557 36.9156 100.364 37.1993 100.231 37.5656C100.103 37.9278 100.038 38.3564 100.038 38.8514C100.038 39.3465 100.105 39.7711 100.238 40.1252C100.37 40.4794 100.561 40.7511 100.811 40.9402C101.065 41.1294 101.374 41.224 101.741 41.224ZM110.849 43.6568C110.257 43.6568 109.732 43.5582 109.273 43.361C108.819 43.1598 108.458 42.8579 108.193 42.4555C107.931 42.049 107.8 41.5399 107.8 40.9281C107.8 40.413 107.891 39.9783 108.072 39.6242C108.253 39.27 108.503 38.9822 108.821 38.7609C109.138 38.5395 109.505 38.3725 109.919 38.2598C110.334 38.1431 110.776 38.0646 111.247 38.0244C111.775 37.9761 112.199 37.9258 112.521 37.8735C112.843 37.8171 113.077 37.7386 113.221 37.638C113.37 37.5334 113.445 37.3865 113.445 37.1973V37.1671C113.445 36.8572 113.338 36.6178 113.125 36.4487C112.912 36.2797 112.624 36.1952 112.262 36.1952C111.871 36.1952 111.557 36.2797 111.32 36.4487C111.082 36.6178 110.931 36.8512 110.867 37.149L108.144 37.0524C108.225 36.489 108.432 35.9859 108.766 35.5432C109.104 35.0965 109.567 34.7463 110.155 34.4928C110.746 34.2352 111.457 34.1064 112.286 34.1064C112.877 34.1064 113.423 34.1768 113.922 34.3177C114.421 34.4545 114.855 34.6558 115.226 34.9214C115.596 35.183 115.882 35.505 116.083 35.8873C116.288 36.2696 116.391 36.7063 116.391 37.1973V43.4999H113.614V42.208H113.541C113.376 42.5219 113.165 42.7875 112.908 43.0048C112.654 43.2222 112.354 43.3852 112.008 43.4938C111.666 43.6025 111.28 43.6568 110.849 43.6568ZM111.761 41.725C112.078 41.725 112.364 41.6606 112.618 41.5318C112.875 41.403 113.081 41.226 113.234 41.0006C113.386 40.7712 113.463 40.5056 113.463 40.2037V39.3223C113.378 39.3666 113.276 39.4068 113.155 39.4431C113.038 39.4793 112.91 39.5135 112.769 39.5457C112.628 39.5779 112.483 39.6061 112.334 39.6302C112.185 39.6543 112.042 39.6765 111.905 39.6966C111.628 39.7409 111.39 39.8093 111.193 39.9019C111 39.9944 110.851 40.1152 110.746 40.2641C110.646 40.409 110.595 40.582 110.595 40.7833C110.595 41.0891 110.704 41.3226 110.921 41.4835C111.143 41.6445 111.422 41.725 111.761 41.725ZM118.196 43.4999V34.2271H121.063V35.9175H121.16C121.329 35.3057 121.605 34.851 121.987 34.5531C122.369 34.2513 122.814 34.1004 123.321 34.1004C123.458 34.1004 123.599 34.1104 123.744 34.1306C123.889 34.1467 124.024 34.1728 124.148 34.209V36.7747C124.007 36.7264 123.822 36.6882 123.593 36.66C123.368 36.6319 123.166 36.6178 122.989 36.6178C122.639 36.6178 122.323 36.6963 122.041 36.8532C121.764 37.0061 121.544 37.2215 121.383 37.4992C121.226 37.7728 121.148 38.0948 121.148 38.4651V43.4999H118.196Z" fill="#E8E8E8"/>
    </g>
    <defs>
        <filter id="filter0_d_4_1042" x="6.28571" y="2.28559" width="54.3684" height="51.4286" filterUnits="userSpaceOnUse" color-interpolation-filters="sRGB">
            <feFlood flood-opacity="0" result="BackgroundImageFix"/>
            <feColorMatrix in="SourceAlpha" type="matrix" values="0 0 0 0 0 0 0 0 0 0 0 0 0 0 0 0 0 0 127 0" result="hardAlpha"/>
            <feOffset/>
            <feGaussianBlur stdDeviation="2.85714"/>
            <feComposite in2="hardAlpha" operator="out"/>
            <feColorMatrix type="matrix" values="0 0 0 0 0 0 0 0 0 0 0 0 0 0 0 0 0 0 0.25 0"/>
            <feBlend mode="normal" in2="BackgroundImageFix" result="effect1_dropShadow_4_1042"/>
            <feBlend mode="normal" in="SourceGraphic" in2="effect1_dropShadow_4_1042" result="shape"/>
        </filter>
        <filter id="filter1_d_4_1042" x="57.3398" y="3.89988" width="103.2" height="48.8704" filterUnits="userSpaceOnUse" color-interpolation-filters="sRGB">
            <feFlood flood-opacity="0" result="BackgroundImageFix"/>
            <feColorMatrix in="SourceAlpha" type="matrix" values="0 0 0 0 0 0 0 0 0 0 0 0 0 0 0 0 0 0 127 0" result="hardAlpha"/>
            <feOffset/>
            <feGaussianBlur stdDeviation="2.8"/>
            <feComposite in2="hardAlpha" operator="out"/>
            <feColorMatrix type="matrix" values="0 0 0 0 0 0 0 0 0 0 0 0 0 0 0 0 0 0 0.25 0"/>
            <feBlend mode="normal" in2="BackgroundImageFix" result="effect1_dropShadow_4_1042"/>
            <feBlend mode="normal" in="SourceGraphic" in2="effect1_dropShadow_4_1042" result="shape"/>
        </filter>
        <linearGradient id="paint0_linear_4_1042" x1="83.4699" y1="-0.00012207" x2="83.4699" y2="55.9999" gradientUnits="userSpaceOnUse">
            <stop stop-color="#1C252C"/>
            <stop offset="1" stop-color="#13191D"/>
        </linearGradient>
    </defs>
</svg>
